<?xml version="1.0" standalone="no"?>
<!DOCTYPE svg PUBLIC "-//W3C//DTD SVG 20010904//EN"
 "http://www.w3.org/TR/2001/REC-SVG-20010904/DTD/svg10.dtd">
<svg version="1.0" xmlns="http://www.w3.org/2000/svg"
 width="333.000000pt" height="333.000000pt" viewBox="0 0 333.000000 333.000000"
 preserveAspectRatio="xMidYMid meet">
<metadata>
Created by potrace 1.11, written by Peter Selinger 2001-2013
</metadata>
<g transform="translate(0.000000,333.000000) scale(0.100000,-0.100000)"
fill="#000000" stroke="none">
<path d="M591 3319 c-273 -53 -486 -247 -563 -516 l-23 -78 0 -1060 0 -1060
23 -80 c69 -240 251 -423 494 -497 l73 -22 1042 -2 c836 -1 1055 1 1106 12 78
16 173 51 209 75 14 11 29 19 34 19 13 0 97 71 149 126 91 96 159 233 181 364
10 57 11 2056 2 2130 -26 200 -167 401 -356 507 -53 31 -137 63 -207 80 -43
10 -2111 12 -2164 2z"/>
</g>
</svg>
